# xmcd CD database file
#
# Track frame offsets:
#	183
#	10160
#	24253
#	39118
#	54078
#	96745
#	118248
#	134403
#	148555
#	165968
#	179260
#	195543
#
# Disc length: 2787 seconds
#
# Revision: 4
# Processed by: cddbd v1.5.2PL0 Copyright (c) Steve Scherf et al.
# Submitted via: CDex 1.70beta2
#
DISCID=950ae10c
DTITLE=Status Quo - Ice In The Sun
DYEAR=1991
DGENRE=Blues
TTITLE0=Ice In The Sun
TTITLE1=Face Without A Soul
TTITLE2=In My Chair
TTITLE3=Spinning Wheel Blues
TTITLE4=Is It Really Me
TTITLE5=Need Your Love
TTITLE6=Are You Growing Tired Of My Love
TTITLE7=Tune To The Music
TTITLE8=Nothing At All
TTITLE9=Velvet Curtains
TTITLE10=Poor Old Man
TTITLE11=Daughter
EXTD=YEAR: 1991
EXTT0=
EXTT1=
EXTT2=
EXTT3=
EXTT4=
EXTT5=
EXTT6=
EXTT7=
EXTT8=
EXTT9=
EXTT10=
EXTT11=
PLAYORDER=
